<mxfile host="app.diagrams.net" modified="2024-01-11T00:13:07.064Z" agent="Mozilla/5.0 (X11; Linux x86_64; rv:120.0) Gecko/20100101 Firefox/120.0" version="22.1.18" etag="XzwnN77OJLYaONR_1-S3" type="github">
  <diagram name="Page-1" id="qCO8pEl2zJ2py9bg0hVu">
    <mxGraphModel>
      <root>
        <mxCell id="0" />
        <mxCell id="1" parent="0" />
      </root>
    </mxGraphModel>
  </diagram>
</mxfile>
